<?xml version="1.0" encoding="UTF-8"?>
<svg id="Calque_1" data-name="Calque 1" xmlns="http://www.w3.org/2000/svg" version="1.1" viewBox="0 0 270 34">
  <defs>
    <style>
      .cls-1 {
        display: none;
        fill: #000;
      }

      .cls-1, .cls-2, .cls-3 {
        stroke-width: 0px;
      }

      .cls-2 {
        fill: #fff;
      }

      .cls-3 {
        fill: #f13024;
      }
    </style>
  </defs>
  <path class="cls-1" d="M13.2,33.8c-2.1,0-3.9-.4-5.4-1.1-1.5-.7-2.8-1.6-3.8-2.8-1-1.2-1.8-2.5-2.3-4-.5-1.5-.7-3-.7-4.5v-.8c0-1.6.2-3.1.7-4.6.5-1.5,1.3-2.8,2.3-4,1-1.2,2.3-2.1,3.8-2.8,1.5-.7,3.2-1.1,5.2-1.1s4.7.6,6.5,1.7c1.8,1.1,3.1,2.6,4,4.4.9,1.8,1.3,3.8,1.3,5.9v2.2H3.5v-3.7h17.3l-1.9,1.8c0-1.5-.2-2.8-.7-3.9-.4-1.1-1.1-1.9-2-2.5-.9-.6-2-.9-3.3-.9s-2.5.3-3.4.9c-.9.6-1.7,1.5-2.2,2.7-.5,1.1-.7,2.5-.7,4.1s.2,2.8.7,4c.5,1.1,1.2,2.1,2.2,2.7,1,.6,2.2,1,3.7,1s2.7-.3,3.7-.9c.9-.6,1.5-1.4,1.8-2.2h5.6c-.4,1.6-1,3.1-2,4.3-1,1.2-2.3,2.2-3.8,2.9-1.5.7-3.3,1-5.2,1ZM40.1,33.3c-2.2,0-4-.3-5.5-.8-1.4-.6-2.5-1.6-3.2-2.9-.7-1.4-1.1-3.2-1.1-5.5V2.4h5.8v22c0,1.2.3,2.1.9,2.7.6.6,1.6.9,2.7.9h3.7v5.2h-3.4ZM26.7,13.6v-4.5h16.9v4.5h-16.9ZM48.7,33V.9h6.1v18.7h-1.1c0-2.4.3-4.4.9-6.1.6-1.7,1.5-2.9,2.7-3.8,1.2-.9,2.8-1.3,4.7-1.3h.3c2.7,0,4.8.9,6.2,2.8,1.4,1.9,2.1,4.6,2.1,8.2v13.6h-6.1v-14.2c0-1.5-.4-2.7-1.3-3.6-.9-.9-2-1.3-3.4-1.3s-2.7.5-3.7,1.5c-.9,1-1.4,2.2-1.4,3.8v13.8h-6.1ZM91.7,33v-7.1h-1v-7.9c0-1.4-.3-2.4-1-3.1-.7-.7-1.7-1-3.1-1s-1.6,0-2.6,0c-1,0-2.1,0-3.1.1-1,0-2,0-2.8.1v-5.2c.7,0,1.4-.1,2.3-.2.9,0,1.7,0,2.6,0,.9,0,1.8,0,2.6,0,2.5,0,4.5.3,6.1,1,1.6.6,2.9,1.7,3.7,3,.9,1.4,1.3,3.2,1.3,5.4v14.8h-4.8ZM84,33.6c-1.7,0-3.3-.3-4.6-.9-1.3-.6-2.3-1.5-3-2.6-.7-1.1-1.1-2.5-1.1-4.1s.4-3.2,1.3-4.3c.9-1.1,2.1-2,3.7-2.5,1.6-.6,3.4-.8,5.5-.8h5.5v3.7h-5.6c-1.4,0-2.5.4-3.3,1.1-.7.7-1.1,1.6-1.1,2.6s.4,2,1.1,2.6c.8.7,1.8,1,3.3,1s1.6-.1,2.3-.4c.7-.3,1.3-.9,1.8-1.6.5-.8.8-1.8.8-3.1l1.5,1.7c-.1,1.7-.6,3.1-1.2,4.2-.6,1.1-1.6,2-2.7,2.6-1.1.6-2.6.9-4.2.9ZM103.1,33V9.1h4.8v10.3h-.4c0-2.4.3-4.5,1-6.1.6-1.6,1.6-2.9,2.9-3.7,1.3-.8,2.9-1.2,4.8-1.2h.3c2.8,0,5,.9,6.5,2.8,1.5,1.8,2.2,4.5,2.2,8.2v13.7h-6.1v-14.2c0-1.5-.4-2.7-1.3-3.6-.8-.9-2-1.4-3.4-1.4s-2.7.5-3.7,1.4c-.9.9-1.4,2.1-1.4,3.7v14h-6.1ZM149.1,33.7c-2.9,0-5.1-.7-6.6-2-1.5-1.3-2.3-3-2.3-5.1h2.3c0,1.3.5,2.5,1.5,3.5,1.1,1,2.8,1.5,5.1,1.5s4-.5,5.1-1.5c1.1-1,1.6-2.2,1.6-3.5s-.5-2.3-1.5-3c-1-.7-2.3-1.1-4-1.3l-2.7-.3c-2-.2-3.6-.9-4.8-1.9-1.2-1-1.8-2.4-1.8-4.2s.3-2.4,1-3.4c.6-1,1.6-1.8,2.8-2.4,1.2-.6,2.7-.9,4.3-.9,2.4,0,4.3.6,5.8,1.8,1.5,1.2,2.3,2.8,2.3,4.8h-2.3c0-1.3-.5-2.3-1.5-3.2-1-.9-2.4-1.3-4.3-1.3s-3.4.5-4.4,1.4c-.9.9-1.4,2-1.4,3.2s.4,1.9,1.1,2.6c.8.7,1.9,1.2,3.4,1.4l2.7.3c2.2.2,4,.8,5.4,1.9,1.4,1.1,2.2,2.6,2.2,4.5s-.4,2.5-1.1,3.6c-.7,1.1-1.7,1.9-3,2.6-1.3.6-2.9.9-4.8.9ZM165.2,33V9.9h1.8v9.5h-.5c0-2,.3-3.7.9-5.2.6-1.5,1.5-2.7,2.7-3.6,1.2-.9,2.7-1.3,4.6-1.3h.1c1.8,0,3.3.4,4.5,1.3,1.2.8,2.1,2,2.6,3.5.6,1.5.9,3.3.9,5.3h-.9c0-2,.3-3.7.9-5.2.6-1.5,1.5-2.7,2.7-3.6,1.2-.9,2.8-1.3,4.6-1.3h.1c1.8,0,3.3.4,4.5,1.3,1.2.8,2.1,2,2.7,3.5.6,1.5.9,3.3.9,5.3v13.6h-2.3v-14.2c0-2.2-.5-4-1.6-5.3-1.1-1.4-2.6-2.1-4.7-2.1s-3.8.7-5,2.1c-1.2,1.4-1.8,3.2-1.8,5.5v13.9h-2.3v-14.2c0-2.2-.5-4-1.6-5.3-1.1-1.4-2.6-2.1-4.7-2.1s-3.8.7-5,2.1c-1.2,1.4-1.8,3.2-1.8,5.5v13.9h-2.3ZM208.5,33V9.9h2.4v23.1h-2.4ZM204.7,11.9v-2h6.2v2h-6.2ZM208.7,5.1c-.6,0-1.1-.2-1.4-.5-.3-.4-.5-.8-.5-1.3s.2-1,.5-1.4c.3-.4.8-.5,1.5-.5s1.1.2,1.4.5c.3.4.5.8.5,1.4s-.2,1-.5,1.3c-.3.3-.8.5-1.5.5ZM227.7,33.2c-1.4,0-2.7-.2-3.8-.6-1.1-.4-1.9-1.2-2.5-2.2-.6-1-.9-2.4-.9-4.1V2.4h2.3v24.3c0,1.4.4,2.5,1.1,3.3.8.8,1.9,1.1,3.3,1.1h4.3v2.1h-3.8ZM216.1,11.8v-1.9h15.4v1.9h-15.4ZM238.4,33V.9h2.3v17.2l-.8,1.5c0-2,.3-3.8.9-5.3.6-1.6,1.6-2.8,2.9-3.6,1.3-.9,2.9-1.3,4.9-1.3h0c2.9,0,5,.9,6.5,2.7,1.5,1.8,2.2,4.2,2.2,7.3v13.6h-2.4v-14.2c0-2.2-.6-4-1.8-5.4-1.2-1.3-2.9-2-5.1-2s-4.1.7-5.4,2.2c-1.3,1.4-2,3.3-2,5.5v13.9h-2.3Z"/>
  <path class="cls-3" d="M265.2,33v-4.4h4.1v4.4h-4.1Z"/>
  <g>
    <path class="cls-2" d="M33.3,11.1l-6.4,22h-6l-4-15.4-4,15.4h-6L.3,11.1h5.6l3.9,16.8,4.2-16.8h5.9l4.1,16.7,3.9-16.7h5.3Z"/>
    <path class="cls-2" d="M34.6,16.1c.9-1.7,2.1-3,3.6-4,1.5-.9,3.2-1.4,5.1-1.4s3.1.3,4.3,1c1.2.7,2.2,1.5,3,2.5v-3.1h5.6v22h-5.6v-3.2c-.7,1-1.7,1.9-3,2.6s-2.7,1-4.4,1-3.5-.5-5.1-1.4c-1.5-1-2.7-2.3-3.6-4-.9-1.7-1.3-3.7-1.3-6s.4-4.2,1.3-5.9ZM49.9,18.6c-.5-1-1.2-1.7-2.1-2.2-.9-.5-1.9-.8-2.9-.8s-2,.3-2.9.8c-.9.5-1.6,1.2-2.1,2.2-.5,1-.8,2.1-.8,3.4s.3,2.5.8,3.5c.5,1,1.3,1.8,2.1,2.3.9.5,1.8.8,2.8.8s2-.3,2.9-.8c.9-.5,1.6-1.3,2.1-2.2.5-1,.8-2.1.8-3.5s-.3-2.5-.8-3.5Z"/>
    <path class="cls-2" d="M63.7,32.5c-1.4-.6-2.6-1.5-3.4-2.6s-1.3-2.3-1.4-3.7h5.6c.1.8.5,1.6,1.3,2.1s1.6.8,2.7.8,1.9-.2,2.5-.6c.6-.4.9-1,.9-1.6s-.4-1.3-1.1-1.6c-.7-.4-1.9-.7-3.5-1.2-1.6-.4-3-.8-4-1.2-1-.4-1.9-1.1-2.7-1.9s-1.1-2.1-1.1-3.5.4-2.3,1.1-3.3c.7-1,1.7-1.8,3-2.4,1.3-.6,2.9-.9,4.6-.9,2.6,0,4.7.7,6.3,2,1.6,1.3,2.4,3.1,2.6,5.3h-5.3c0-.9-.4-1.6-1.1-2.1-.6-.5-1.5-.8-2.6-.8s-1.8.2-2.3.6c-.5.4-.8.9-.8,1.6s.4,1.3,1.1,1.7c.7.4,1.9.8,3.5,1.2,1.6.4,2.9.8,3.9,1.2,1,.4,1.9,1.1,2.7,2s1.1,2.1,1.2,3.5c0,1.3-.4,2.4-1.1,3.4-.7,1-1.7,1.8-3,2.4-1.3.6-2.8.9-4.6.9s-3.4-.3-4.9-1Z"/>
    <path class="cls-2" d="M83.8,32.5c-1.4-.6-2.6-1.5-3.4-2.6s-1.3-2.3-1.4-3.7h5.6c.1.8.5,1.6,1.3,2.1s1.6.8,2.7.8,1.9-.2,2.5-.6c.6-.4.9-1,.9-1.6s-.4-1.3-1.1-1.6c-.7-.4-1.9-.7-3.5-1.2-1.6-.4-3-.8-4-1.2-1-.4-1.9-1.1-2.7-1.9s-1.1-2.1-1.1-3.5.4-2.3,1.1-3.3c.7-1,1.7-1.8,3-2.4,1.3-.6,2.9-.9,4.6-.9,2.6,0,4.7.7,6.3,2,1.6,1.3,2.4,3.1,2.6,5.3h-5.3c0-.9-.4-1.6-1.1-2.1-.6-.5-1.5-.8-2.6-.8s-1.8.2-2.3.6c-.5.4-.8.9-.8,1.6s.4,1.3,1.1,1.7c.7.4,1.9.8,3.5,1.2,1.6.4,2.9.8,3.9,1.2,1,.4,1.9,1.1,2.7,2s1.1,2.1,1.2,3.5c0,1.3-.4,2.4-1.1,3.4-.7,1-1.7,1.8-3,2.4-1.3.6-2.8.9-4.6.9s-3.4-.3-4.9-1Z"/>
    <path class="cls-2" d="M100.8,7.5c-.6-.6-1-1.4-1-2.3s.3-1.7,1-2.3c.6-.6,1.5-.9,2.4-.9s1.8.3,2.4.9c.6.6,1,1.4,1,2.3s-.3,1.7-1,2.3c-.6.6-1.5.9-2.4.9s-1.8-.3-2.4-.9ZM105.9,11.1v22h-5.6V11.1h5.6Z"/>
    <path class="cls-2" d="M143.8,13.3c1.7,1.7,2.5,4,2.5,6.9v12.9h-5.6v-12.2c0-1.7-.4-3-1.3-4s-2.1-1.4-3.6-1.4-2.7.5-3.6,1.4c-.9.9-1.3,2.2-1.3,4v12.2h-5.6v-12.2c0-1.7-.4-3-1.3-4s-2.1-1.4-3.6-1.4-2.8.5-3.6,1.4c-.9.9-1.3,2.2-1.3,4v12.2h-5.6V11.1h5.6v2.7c.7-.9,1.6-1.7,2.8-2.2,1.1-.5,2.4-.8,3.7-.8s3.3.4,4.6,1.1c1.4.7,2.4,1.8,3.1,3.1.7-1.3,1.8-2.3,3.1-3.1,1.4-.8,2.8-1.2,4.4-1.2,2.7,0,4.9.8,6.5,2.5Z"/>
    <path class="cls-2" d="M159.8,16.4c.9-1.7,2.1-3,3.7-3.9,1.6-.9,3.4-1.4,5.4-1.4s4.9.7,6.6,2c1.7,1.3,2.9,3.1,3.4,5.4h-3c-.4-1.6-1.2-2.8-2.4-3.7-1.2-.9-2.8-1.3-4.6-1.3s-2.8.3-3.9,1c-1.2.7-2.1,1.6-2.8,3-.7,1.3-1,2.9-1,4.8s.3,3.5,1,4.8,1.6,2.3,2.8,3c1.2.7,2.5,1,3.9,1s3.4-.4,4.6-1.3c1.2-.9,2-2.1,2.4-3.7h3c-.5,2.2-1.6,4-3.4,5.4-1.7,1.4-3.9,2-6.6,2s-3.9-.5-5.4-1.4c-1.6-.9-2.8-2.2-3.7-3.9-.9-1.7-1.4-3.7-1.4-5.9s.5-4.2,1.4-5.9Z"/>
    <path class="cls-2" d="M197.4,12.1c1.3.7,2.3,1.7,3.1,3.2.8,1.4,1.1,3.1,1.1,5.2v12.7h-2.7v-12.4c0-2.4-.6-4.2-1.8-5.4-1.2-1.2-2.8-1.9-4.8-1.9s-3.8.7-5,2c-1.2,1.3-1.9,3.3-1.9,5.8v11.8h-2.8V3.7h2.8v11.4c.7-1.3,1.7-2.3,3-3,1.3-.7,2.8-1.1,4.5-1.1s3.1.3,4.4,1Z"/>
    <path class="cls-2" d="M206.2,6.7c-.4-.4-.6-.9-.6-1.5s.2-1.1.6-1.5c.4-.4.9-.6,1.4-.6s1,.2,1.4.6c.4.4.6.9.6,1.5s-.2,1.1-.6,1.5-.9.6-1.4.6-1-.2-1.4-.6ZM209,11.4v21.7h-2.8V11.4h2.8Z"/>
    <path class="cls-2" d="M225.5,33.1l-8.9-9.7v9.7h-2.8V3.7h2.8v17.4l8.7-9.7h3.9l-10.3,10.8,10.4,10.9h-3.8Z"/>
    <path class="cls-2" d="M246.1,12.1c1.3.7,2.3,1.7,3.1,3.2.8,1.4,1.1,3.1,1.1,5.2v12.7h-2.7v-12.4c0-2.4-.6-4.2-1.8-5.4-1.2-1.2-2.8-1.9-4.8-1.9s-3.8.7-5,2c-1.2,1.3-1.9,3.3-1.9,5.8v11.8h-2.8V3.7h2.8v11.4c.7-1.3,1.7-2.3,3-3,1.3-.7,2.8-1.1,4.5-1.1s3.1.3,4.4,1Z"/>
    <path class="cls-2" d="M254.9,6.7c-.4-.4-.6-.9-.6-1.5s.2-1.1.6-1.5c.4-.4.9-.6,1.4-.6s1,.2,1.4.6c.4.4.6.9.6,1.5s-.2,1.1-.6,1.5-.9.6-1.4.6-1-.2-1.4-.6ZM257.7,11.4v21.7h-2.8V11.4h2.8Z"/>
  </g>
</svg>